<?xml version="1.0" encoding="UTF-8"?>
<svg version="1.1" xmlns="http://www.w3.org/2000/svg" width="512" height="512">
<path d="M0 0 C1.15997309 -0.00872064 1.15997309 -0.00872064 2.34337997 -0.01761746 C4.95026113 -0.03228528 7.55621071 -0.01830109 10.16308594 -0.00457001 C12.04460127 -0.00917625 13.92611302 -0.0155273 15.80761719 -0.02347898 C20.99007229 -0.04023344 26.17223415 -0.03189821 31.35469055 -0.01953411 C36.93895492 -0.0105109 42.52316766 -0.02443975 48.10742188 -0.0354538 C59.05178142 -0.05327284 69.99603146 -0.04938397 80.94039536 -0.03780323 C89.83234305 -0.02878248 98.72425998 -0.02753902 107.61621094 -0.0318985 C108.88007881 -0.03251143 110.14394669 -0.03312436 111.44611359 -0.03375587 C114.01335654 -0.03503472 116.58059948 -0.03633158 119.14784241 -0.03764623 C142.55335556 -0.0487363 165.95879835 -0.03722083 189.36429787 -0.01627585 C210.7399676 0.00270721 232.11554203 0.00100873 253.49121094 -0.01811981 C277.49574303 -0.03952895 301.50021554 -0.04796322 325.50476074 -0.03567076 C328.06274413 -0.03439651 330.62072753 -0.03313903 333.17871094 -0.0318985 C335.06674816 -0.03097285 335.06674816 -0.03097285 336.99292755 -0.03002849 C345.877785 -0.02656974 354.76260871 -0.03241524 363.64746094 -0.04181671 C374.46999478 -0.05301642 385.29241253 -0.05003942 396.11493301 -0.02869374 C401.64044843 -0.01815599 407.16577004 -0.01410779 412.69128418 -0.02729034 C417.74435822 -0.03916375 422.79705784 -0.03273549 427.85009766 -0.01138014 C429.68314237 -0.00689256 431.51621838 -0.00922828 433.34924316 -0.01888329 C435.83159257 -0.03096075 438.31264162 -0.01866171 440.79492188 0 C441.87481699 -0.014047 441.87481699 -0.014047 442.97652817 -0.02837777 C446.15214839 0.0196887 448.14311635 0.34138185 450.84115934 2.05966616 C452.95530874 5.3792949 452.95042843 8.29256437 452.9008255 12.10590363 C452.90663926 12.87921902 452.91245303 13.65253441 452.91844296 14.4492836 C452.93311078 17.05616476 452.91912659 19.66211433 452.90539551 22.26898956 C452.91000175 24.1505049 452.9163528 26.03201664 452.92430449 27.91352081 C452.94105894 33.09597592 452.93272371 38.27813778 452.92035961 43.46059418 C452.9113364 49.04485854 452.92526525 54.62907128 452.9362793 60.2133255 C452.95409834 71.15768505 452.95020947 82.10193508 452.93862873 93.04629898 C452.92960798 101.93824668 452.92836452 110.83016361 452.932724 119.72211456 C452.93333693 120.98598244 452.93394986 122.24985031 452.93458137 123.55201721 C452.93586023 126.11926016 452.93715708 128.6865031 452.93847173 131.25374603 C452.9495618 154.65925918 452.93804633 178.06470197 452.91710135 201.47020149 C452.89811829 222.84587123 452.89981677 244.22144566 452.91894531 265.59711456 C452.94035445 289.60164666 452.94878873 313.60611917 452.93649626 337.61066437 C452.93522201 340.16864776 452.93396453 342.72663116 452.932724 345.28461456 C452.93179835 347.17265179 452.93179835 347.17265179 452.93085399 349.09883118 C452.92739524 357.98368862 452.93324074 366.86851234 452.94264221 375.75336456 C452.95384192 386.57589841 452.95086492 397.39831616 452.92951924 408.22083664 C452.91898149 413.74635206 452.91493329 419.27167367 452.92811584 424.79718781 C452.93998925 429.85026184 452.93356099 434.90296147 452.91220564 439.95600128 C452.90771806 441.789046 452.91005378 443.62212201 452.91970879 445.45514679 C452.93178625 447.93749619 452.91948721 450.41854524 452.9008255 452.9008255 C452.91019017 453.62075558 452.91955483 454.34068565 452.92920327 455.08243179 C452.87755733 458.49453794 452.61887202 460.21976252 450.49100065 462.94532013 C447.59632443 465.09958267 445.79923957 465.09211777 442.29980469 464.87055206 C440.39746094 464.50336456 440.39746094 464.50336456 437.95996094 463.12836456 C436.22529397 460.21412406 436.2877251 459.047466 436.24902344 455.74164581 C435.89256186 451.74436439 435.29527353 449.76925565 432.29199219 447.06977081 C430.95323671 446.03934287 429.5909147 445.03901137 428.20996094 444.06586456 C427.12618164 443.24602081 427.12618164 443.24602081 426.02050781 442.40961456 C424.53708627 441.28892274 423.04499799 440.17960989 421.54443359 439.08197784 C418.43605427 436.79646719 415.42042638 434.39989049 412.39746094 432.00336456 C411.25180102 431.10730946 410.10596549 430.21147885 408.95996094 429.31586456 C405.06802527 426.25791511 401.23226994 423.13245101 397.39746094 420.00336456 C392.19381787 415.76251841 386.97538132 411.54237364 381.70996094 407.37836456 C381.14599609 406.92912628 380.58203125 406.479888 380.00097656 406.01703644 C376.9277632 403.59785639 373.89140495 401.27787203 370.39746094 399.50336456 C369.73746094 399.83336456 369.07746094 400.16336456 368.39746094 400.50336456 C361.22390722 401.08187696 361.22390722 401.08187696 357.89746094 398.75336456 C356.39746094 396.50336456 356.39746094 396.50336456 356.39746094 392.50336456 C266.63746094 392.50336456 176.87746094 392.50336456 84.39746094 392.50336456 C84.06746094 394.48336456 83.73746094 396.46336456 83.39746094 398.50336456 C80.3720176 400.52032679 79.78678711 400.76147552 76.39746094 400.69086456 C75.71683594 400.68441925 75.03621094 400.67797394 74.33496094 400.67133331 C72.39746094 400.50336456 72.39746094 400.50336456 69.39746094 399.50336456 C67.71713571 400.39718484 67.71713571 400.39718484 66.09667969 401.86273956 C65.13665039 402.66228058 65.13665039 402.66228058 64.15722656 403.47797394 C63.47337891 404.06385284 62.78953125 404.64973175 62.08496094 405.25336456 C60.63140219 406.46794617 59.17695998 407.6814712 57.72167969 408.89398956 C56.99255371 409.50564972 56.26342773 410.11730988 55.51220703 410.74750519 C52.5225997 413.22975593 49.46651806 415.62061418 46.39746094 418.00336456 C41.34782165 421.94377195 36.3598615 425.9537125 31.39746094 430.00336456 C11.86804605 445.93675182 11.86804605 445.93675182 7.03808594 448.99945831 C5.17714156 450.40840551 5.17714156 450.40840551 4.92871094 452.84320831 C4.91839844 453.70043488 4.90808594 454.55766144 4.89746094 455.44086456 C4.67253942 458.7189761 4.54170111 460.26104107 2.83496094 463.12836456 C-0.55527524 465.04080548 -3.80927774 465.5109496 -7.60253906 464.50336456 C-10.72437855 462.18004363 -11.5311984 460.98941724 -12.10393572 457.0872879 C-12.12505552 455.69196011 -12.12405423 454.29619508 -12.10590363 452.9008255 C-12.11171739 452.12751011 -12.11753115 451.35419472 -12.12352109 450.55744553 C-12.1381889 447.95056437 -12.12420471 445.34461479 -12.11047363 442.73773956 C-12.11507988 440.85622423 -12.12143092 438.97471248 -12.12938261 437.09320831 C-12.14613707 431.91075321 -12.13780184 426.72859135 -12.12543774 421.54613495 C-12.11641453 415.96187058 -12.13034338 410.37765785 -12.14135742 404.79340363 C-12.15917646 393.84904408 -12.15528759 382.90479404 -12.14370686 371.96043015 C-12.13468611 363.06848245 -12.13344264 354.17656552 -12.13780212 345.28461456 C-12.13841506 344.02074669 -12.13902799 342.75687881 -12.13965949 341.45471191 C-12.14093835 338.88746896 -12.1422352 336.32022602 -12.14354986 333.75298309 C-12.15463993 310.34746994 -12.14312445 286.94202716 -12.12217947 263.53652763 C-12.10319641 242.1608579 -12.1048949 220.78528347 -12.12402344 199.40961456 C-12.14543257 175.40508247 -12.15386685 151.40060996 -12.14157438 127.39606476 C-12.14030014 124.83808137 -12.13904266 122.28009797 -12.13780212 119.72211456 C-12.13718502 118.46342308 -12.13656792 117.2047316 -12.13593212 115.90789795 C-12.13247336 107.0230405 -12.13831887 98.13821679 -12.14772034 89.25336456 C-12.15892004 78.43083072 -12.15594304 67.60841297 -12.13459736 56.78589249 C-12.12405962 51.26037707 -12.12001142 45.73505546 -12.13319397 40.20954132 C-12.14506738 35.15646728 -12.13863912 30.10376766 -12.11728376 25.05072784 C-12.11279618 23.21768313 -12.1151319 21.38460712 -12.12478691 19.55158234 C-12.13686437 17.06923293 -12.12456534 14.58818388 -12.10590363 12.10590363 C-12.11526829 11.38597355 -12.12463295 10.66604347 -12.1342814 9.92429733 C-12.08621493 6.74867711 -11.76452177 4.75770915 -10.04623747 2.05966616 C-6.72660873 -0.05448324 -3.81333925 -0.04960293 0 0 Z " fill="#1A2C3D" transform="translate(35.6025390625,23.49663543701172)"/>
<path d="M0 0 C89.76 0 179.52 0 272 0 C272 71.28 272 142.56 272 216 C182.24 216 92.48 216 0 216 C0 144.72 0 73.44 0 0 Z " fill="#9DABC4" transform="translate(120,200)"/>
<path d="M0 0 C139.26 0 278.52 0 422 0 C411.65674511 21.83576033 411.65674511 21.83576033 406.30273438 32.52392578 C405.6920367 33.74668374 405.08150787 34.96952603 404.47113037 36.19244385 C402.84951634 39.44013593 401.22546725 42.68660397 399.60078239 45.93276072 C397.88909482 49.35356417 396.17939525 52.77536115 394.46936035 56.19699097 C391.60991291 61.91768939 388.74880729 67.63755611 385.88671875 73.35693359 C382.57756769 79.96975052 379.27135036 86.58402819 375.96658087 93.19903576 C373.1152232 98.90627972 370.26231709 104.6127476 367.4080987 110.31856143 C365.70883385 113.71553285 364.01010964 117.11277169 362.31278992 120.51071548 C360.43151203 124.27668049 358.54698845 128.0410119 356.66210938 131.80517578 C355.81909271 133.49424545 355.81909271 133.49424545 354.95904541 135.21743774 C354.44899963 136.23470947 353.93895386 137.2519812 353.41345215 138.30007935 C352.96885399 139.18889864 352.52425583 140.07771793 352.066185 140.99347115 C351 143 351 143 350 144 C348.51435756 144.09676951 347.02411371 144.12371755 345.53532314 144.12304783 C344.56494812 144.12503888 343.59457311 144.12702993 342.59479278 144.12908131 C341.516022 144.12616847 340.43725121 144.12325563 339.32579041 144.12025452 C338.18970842 144.12110894 337.05362644 144.12196337 335.88311774 144.12284368 C332.71572452 144.1242118 329.54837167 144.12106457 326.38098323 144.11606562 C322.97060765 144.11176425 319.5602341 144.11320732 316.14985657 144.1139679 C310.23650092 144.11449333 304.32315627 144.1113445 298.40980339 144.10573006 C289.85999177 144.09761769 281.31018549 144.09500011 272.76037044 144.09374207 C258.89029277 144.09155113 245.02022097 144.08488992 231.15014648 144.07543945 C217.67325876 144.06626641 204.19637263 144.05918505 190.71948242 144.05493164 C189.88936037 144.05466892 189.05923833 144.05440619 188.20396107 144.05413551 C184.0396599 144.05283051 179.87535873 144.05156679 175.71105754 144.05032361 C141.14070085 144.0399497 106.57035096 144.02233026 72 144 C66.28781946 133.20880166 60.62579494 122.40128079 55.17333984 111.47607422 C54.56119801 110.25315333 53.94888742 109.0303169 53.33642578 107.80755615 C51.71126682 104.56169971 50.08854561 101.31463092 48.46645689 98.06723928 C46.75673463 94.64522215 45.04502393 91.22419971 43.33364868 87.80300903 C40.47311462 82.08374401 37.61424007 76.36365185 34.75634766 70.64306641 C31.4514638 64.02781148 28.14364885 57.41402822 24.83438337 50.80096424 C21.97923251 45.09518999 19.12563039 39.38864322 16.27333987 33.68143857 C14.57521937 30.2836389 12.87655979 26.88611165 11.1764946 23.48928452 C9.2929502 19.72560289 7.41265767 15.9603061 5.53271484 12.19482422 C4.9686795 11.06877777 4.40464417 9.94273132 3.82351685 8.78256226 C3.31629089 7.76529053 2.80906494 6.7480188 2.28646851 5.69992065 C1.84224737 4.81110136 1.39802624 3.92228207 0.94034386 3.00652885 C0 1 0 1 0 0 Z " fill="#1A2C3D" transform="translate(45,40)"/>
<path d="M0 0 C0.33 0 0.66 0 1 0 C1 134.31 1 268.62 1 407 C-5.74329738 402.50446841 -5.74329738 402.50446841 -8.59375 400.15234375 C-9.53927734 399.37697266 -9.53927734 399.37697266 -10.50390625 398.5859375 C-11.16261719 398.04195313 -11.82132812 397.49796875 -12.5 396.9375 C-17.62558554 392.7369741 -22.77423687 388.57528154 -28 384.5 C-33.72849609 380.02768127 -39.37365892 375.4596563 -45.00390625 370.86450195 C-51.60149772 365.48943385 -58.28904412 360.23244842 -65 355 C-64.8295196 354.50860975 -64.65903919 354.01721951 -64.48339272 353.51093864 C-63.794071 349.93032092 -64.07033358 346.44305939 -64.26571655 342.82498169 C-64.34811984 341.091306 -64.43034735 339.35762195 -64.51242733 337.62393093 C-64.55842976 336.6954295 -64.6044322 335.76692806 -64.65182865 334.81029022 C-66.09517451 305.26445721 -66.87584711 275.70052002 -67.375 246.125 C-67.39716536 244.84431216 -67.41933072 243.56362432 -67.44216776 242.24412775 C-68.60507039 172.37714311 -66.84206908 110.60048138 -31.4375 48.9375 C-31.06153907 48.28009984 -30.68557814 47.62269968 -30.29822445 46.9453783 C-21.01235283 30.74660846 -11.03993854 15.0705352 0 0 Z " fill="#B7C2D4" transform="translate(471,67)"/>
<path d="M0 0 C12.30506065 16.40674753 23.42515661 33.40310411 33.625 51.1875 C33.98523443 51.81275731 34.34546886 52.43801462 34.71661949 53.08221912 C69.64751767 113.94338912 69.37897674 177.23691385 68.25 245.875 C68.22925447 247.16363685 68.20850893 248.4522737 68.18713474 249.77996016 C67.70241635 279.06046158 66.88594157 308.32748381 65.49019814 337.57947063 C65.44986627 338.46560254 65.4095344 339.35173444 65.36798036 340.26471883 C65.29337888 341.89786802 65.21410773 343.53081388 65.12910426 345.16345471 C64.9744412 348.61198533 64.85835951 351.70770912 66 355 C57.49077451 362.06101181 48.96378431 369.08693464 40.24169922 375.8840332 C35.78139508 379.36677994 31.38404866 382.92188125 27 386.5 C21.79641489 390.74091556 16.57791904 394.96099199 11.3125 399.125 C10.74853516 399.57423828 10.18457031 400.02347656 9.60351562 400.48632812 C6.4822839 402.94330739 3.43414284 404.93951429 0 407 C0 272.69 0 138.38 0 0 Z " fill="#B7C2D4" transform="translate(40,67)"/>
<path d="M0 0 C139.26 0 278.52 0 422 0 C411.65674511 21.83576033 411.65674511 21.83576033 406.30273438 32.52392578 C405.6920367 33.74668374 405.08150787 34.96952603 404.47113037 36.19244385 C402.84951634 39.44013593 401.22546725 42.68660397 399.60078239 45.93276072 C397.88909482 49.35356417 396.17939525 52.77536115 394.46936035 56.19699097 C391.60991291 61.91768939 388.74880729 67.63755611 385.88671875 73.35693359 C382.57756769 79.96975052 379.27135036 86.58402819 375.96658087 93.19903576 C373.1152232 98.90627972 370.26231709 104.6127476 367.4080987 110.31856143 C365.70883385 113.71553285 364.01010964 117.11277169 362.31278992 120.51071548 C360.43151203 124.27668049 358.54698845 128.0410119 356.66210938 131.80517578 C355.81909271 133.49424545 355.81909271 133.49424545 354.95904541 135.21743774 C354.44899963 136.23470947 353.93895386 137.2519812 353.41345215 138.30007935 C352.96885399 139.18889864 352.52425583 140.07771793 352.066185 140.99347115 C351 143 351 143 350 144 C348.51435756 144.09676951 347.02411371 144.12371755 345.53532314 144.12304783 C344.56494812 144.12503888 343.59457311 144.12702993 342.59479278 144.12908131 C341.516022 144.12616847 340.43725121 144.12325563 339.32579041 144.12025452 C338.18970842 144.12110894 337.05362644 144.12196337 335.88311774 144.12284368 C332.71572452 144.1242118 329.54837167 144.12106457 326.38098323 144.11606562 C322.97060765 144.11176425 319.5602341 144.11320732 316.14985657 144.1139679 C310.23650092 144.11449333 304.32315627 144.1113445 298.40980339 144.10573006 C289.85999177 144.09761769 281.31018549 144.09500011 272.76037044 144.09374207 C258.89029277 144.09155113 245.02022097 144.08488992 231.15014648 144.07543945 C217.67325876 144.06626641 204.19637263 144.05918505 190.71948242 144.05493164 C189.88936037 144.05466892 189.05923833 144.05440619 188.20396107 144.05413551 C184.0396599 144.05283051 179.87535873 144.05156679 175.71105754 144.05032361 C141.14070085 144.0399497 106.57035096 144.02233026 72 144 C66.28781946 133.20880166 60.62579494 122.40128079 55.17333984 111.47607422 C54.56119801 110.25315333 53.94888742 109.0303169 53.33642578 107.80755615 C51.71126682 104.56169971 50.08854561 101.31463092 48.46645689 98.06723928 C46.75673463 94.64522215 45.04502393 91.22419971 43.33364868 87.80300903 C40.47311462 82.08374401 37.61424007 76.36365185 34.75634766 70.64306641 C31.4514638 64.02781148 28.14364885 57.41402822 24.83438337 50.80096424 C21.97923251 45.09518999 19.12563039 39.38864322 16.27333987 33.68143857 C14.57521937 30.2836389 12.87655979 26.88611165 11.1764946 23.48928452 C9.2929502 19.72560289 7.41265767 15.9603061 5.53271484 12.19482422 C4.9686795 11.06877777 4.40464417 9.94273132 3.82351685 8.78256226 C3.31629089 7.76529053 2.80906494 6.7480188 2.28646851 5.69992065 C1.84224737 4.81110136 1.39802624 3.92228207 0.94034386 3.00652885 C0 1 0 1 0 0 Z M32.67091751 18.37026691 C30.52295444 21.75078662 30.29030107 23.04102817 31 27 C32.25781074 30.32528657 33.82617301 33.46166321 35.43457031 36.62963867 C35.9060701 37.58154587 36.37756989 38.53345306 36.86335754 39.51420593 C38.42305187 42.65488118 40.00002393 45.78650694 41.578125 48.91796875 C42.66789497 51.09901091 43.75689397 53.28043844 44.84515381 55.4622345 C47.12755131 60.03136164 49.41836457 64.59613975 51.71533203 69.15795898 C54.66042385 75.00834546 57.58576148 80.8683446 60.50505447 86.73163891 C62.75043133 91.23656688 65.00548162 95.73659625 67.26357269 100.23516273 C68.34608587 102.39433519 69.42573507 104.55494596 70.50247955 106.71700096 C72.00790897 109.73583974 73.52605758 112.74792978 75.04785156 115.75854492 C75.49165665 116.6547052 75.93546173 117.55086548 76.39271545 118.47418213 C76.81050766 119.29422226 77.22829987 120.11426239 77.65875244 120.95915222 C78.19523596 122.02734334 78.19523596 122.02734334 78.74255753 123.11711407 C80.25509189 125.38197288 81.70585027 126.53303745 84 128 C86.14235823 128.44571368 86.14235823 128.44571368 88.44503689 128.38311005 C89.77953165 128.39669501 89.77953165 128.39669501 91.14098591 128.41055441 C92.11422481 128.40522648 93.08746371 128.39989856 94.0901947 128.39440918 C95.12730687 128.40050028 96.16441904 128.40659139 97.23295885 128.41286707 C100.71913691 128.42955813 104.20495216 128.42471246 107.69116211 128.41992188 C110.18607464 128.42725861 112.68098377 128.43584368 115.17588806 128.44558716 C121.25575816 128.46553862 127.33548482 128.47118152 133.41537493 128.46939927 C138.35661044 128.46809215 143.29781619 128.47189321 148.2390461 128.47932434 C149.6618217 128.48142351 151.08459731 128.48352111 152.50737292 128.48561716 C153.21550442 128.48666069 153.92363593 128.48770422 154.65322597 128.48877937 C168.04838149 128.50768521 181.44348225 128.50663042 194.83864558 128.49981004 C207.09563355 128.49423368 219.35241256 128.51506323 231.60935169 128.54817051 C244.19220857 128.58189459 256.77496532 128.5970775 269.35786825 128.59245348 C276.42327153 128.59020756 283.48848165 128.59546972 290.55384636 128.62034607 C297.19656364 128.64353503 303.83891799 128.64079212 310.48166847 128.62041855 C312.92259939 128.61699643 315.36355928 128.62214886 317.80445099 128.63640213 C321.13108868 128.6544904 324.45623052 128.64192166 327.78282166 128.62145996 C329.23933393 128.64023673 329.23933393 128.64023673 330.72527069 128.65939283 C335.2255008 128.59985179 337.32027812 128.51790935 340.98710251 125.72399807 C342.67448293 123.44051318 344.15238516 121.32529215 345.42353821 118.79457092 C346.03966728 117.5856292 346.03966728 117.5856292 346.66824341 116.3522644 C347.09910248 115.48199615 347.52996155 114.61172791 347.97387695 113.71508789 C348.67722923 112.32393517 348.67722923 112.32393517 349.39479065 110.90467834 C350.93613821 107.84900557 352.46271991 104.78623728 353.98828125 101.72265625 C355.05678007 99.59156824 356.12581358 97.46074824 357.19535828 95.33018494 C359.43188683 90.86899961 361.6609515 86.40418213 363.88500977 81.93676758 C366.73614307 76.21159417 369.60705174 70.4966051 372.4837923 64.78426456 C374.6944673 60.38848049 376.89386163 55.98712721 379.08995628 51.5840435 C380.14408434 49.47430021 381.20188782 47.36638919 382.26342201 45.26036263 C383.74492698 42.3173005 385.21090195 39.36700005 386.6730957 36.41430664 C387.11407593 35.54606262 387.55505615 34.6778186 388.00939941 33.78326416 C391.08054765 27.67950341 391.08054765 27.67950341 391 21 C389.35838883 18.41491293 388.61989837 17.43131594 386 16 C381.39911967 15.22790772 376.79640255 15.32497098 372.14501953 15.36508179 C370.70057759 15.35932065 369.25614298 15.35137957 367.81172371 15.34144557 C363.8419235 15.32054742 359.87272326 15.33090051 355.90292072 15.34637666 C351.62198608 15.35767425 347.34115572 15.3402354 343.0602417 15.32647705 C334.67372748 15.30422303 326.28743676 15.30905543 317.90091372 15.32354026 C311.08612512 15.334824 304.27139925 15.33636715 297.456604 15.33092117 C296.48734863 15.33015501 295.51809326 15.32938884 294.51946652 15.32859946 C292.55055283 15.32700086 290.58163915 15.3253798 288.6127255 15.3237365 C270.14243775 15.30947266 251.67227399 15.32588168 233.20200658 15.35273834 C217.34749957 15.37507769 201.49317558 15.37119774 185.63867188 15.34814453 C167.23529228 15.32139774 148.83202142 15.31084602 130.42862511 15.32620585 C128.46688209 15.32779863 126.50513905 15.32937048 124.543396 15.33092117 C123.5781359 15.33169255 122.61287581 15.33246393 121.61836541 15.33325868 C114.81034942 15.33757905 108.0024023 15.33028189 101.19439697 15.31852341 C92.89968137 15.30451231 84.6052024 15.30826899 76.31051397 15.33492713 C72.07692024 15.34808414 67.84372128 15.35318589 63.61013031 15.33668137 C59.73623928 15.32180733 55.86310979 15.32992688 51.98928809 15.35656913 C50.58626998 15.36216505 49.18318784 15.35928864 47.78021073 15.34719019 C39.62718673 14.90426664 39.62718673 14.90426664 32.67091751 18.37026691 Z " fill="#D2DBE4" transform="translate(45,40)"/>
<path d="M0 0 C49.83 0 99.66 0 151 0 C151 10.56 151 21.12 151 32 C106.12 32 61.24 32 15 32 C11.37 24.41 7.74 16.82 4 9 C2.02 5.535 2.02 5.535 0 2 C0 1.34 0 0.68 0 0 Z " fill="#B7C2D4" transform="translate(97,72)"/>
<path d="M0 0 C49.83 0 99.66 0 151 0 C148.03 6.27 145.06 12.54 142 19 C140.02 23.29 138.04 27.58 136 32 C91.12 32 46.24 32 0 32 C0 21.44 0 10.88 0 0 Z " fill="#B7C2D4" transform="translate(264,72)"/>
<path d="M0 0 C41.91 0 83.82 0 127 0 C127 10.56 127 21.12 127 32 C90.04 32 53.08 32 15 32 C11.37 24.41 7.74 16.82 4 9 C2.02 5.535 2.02 5.535 0 2 C0 1.34 0 0.68 0 0 Z " fill="#B7C2D4" transform="translate(121,120)"/>
<path d="M0 0 C41.91 0 83.82 0 127 0 C124.03 6.27 121.06 12.54 118 19 C116.02 23.29 114.04 27.58 112 32 C75.04 32 38.08 32 0 32 C0 21.44 0 10.88 0 0 Z " fill="#B7C2D4" transform="translate(264,120)"/>
</svg>
