<svg xmlns="http://www.w3.org/2000/svg" version="1.1" viewBox="-5.0 -10.0 110.0 135.0">
 <path d="m98.988 8.4844v-0.10156c0-0.10156-0.10156-0.20312-0.20312-0.20312l-0.097656-0.097657s-0.10156 0-0.20312-0.10156h-0.10156c-0.10156 0-0.20312-0.10156-0.30469-0.10156h-95.961c-0.10156 0-0.20313 0-0.40234 0.10156h-0.097656c0 0.10156-0.10156 0.10156-0.20313 0.20312 0 0-0.10156 0-0.10156 0.10156 0 0 0 0.10156-0.10156 0.20312v0.10156c0 0.097656-0.10156 0.19922-0.10156 0.30078v85.859c0 0.10156 0 0.20312 0.10156 0.30469v0.10156c0 0.10156 0.10156 0.20312 0.20312 0.20312 0 0 0.10156 0 0.10156 0.10156 0.10156 0.10156 0.10156 0.10156 0.20312 0.10156h0.10156c0.10156 0 0.20313 0.10156 0.30469 0.10156h95.961c0.10156 0 0.20312 0 0.30469-0.10156h0.10156c0.10156 0 0.10156-0.10156 0.20312-0.10156 0 0 0.10156 0 0.10156-0.10156 0.10156-0.10156 0.10156-0.20312 0.20312-0.20312v-0.10156c0-0.10156 0.10156-0.20313 0.10156-0.30469v-85.859c-0.011718-0.10156-0.011718-0.30469-0.11328-0.40625zm-75.656 20.406h53.535v45.758h-53.535zm-20.199-17.68 18.184 17.07v46.969l-18.184 17.172zm1.5117 82.527 18.082-17.07h54.746l18.082 17.07zm92.426-1.3125-18.184-17.172 0.003906-46.973 18.184-17.07z"/>
 <path d="m49.898 40.203c-0.10156-0.10156-0.30469-0.20312-0.50391-0.20312-0.20312 0-0.40234 0.10156-0.50391 0.20312l-4.5469 4.5469c-0.30469 0.30469-0.30469 0.80859 0 1.1094 0.30469 0.30469 0.80859 0.30469 1.1094 0l3.2305-3.2305v9.293c0 0.40234 0.30469 0.80859 0.80859 0.80859 0.50391 0 0.80859-0.30469 0.80859-0.80859v-9.293l3.1328 3.2305c0.10156 0.20312 0.30469 0.20312 0.50391 0.20312 0.20312 0 0.40234-0.10156 0.50391-0.20312 0.30469-0.30469 0.30469-0.80859 0-1.1094z"/>
 <path d="m84.547 45.758 3.2305-3.2305v9.293c0 0.40234 0.30469 0.80859 0.80859 0.80859 0.50391 0 0.80859-0.30469 0.80859-0.80859v-9.293l3.2305 3.2305c0.10156 0.10156 0.30469 0.20313 0.50391 0.20313 0.20312 0 0.40234-0.10156 0.50391-0.20313 0.30469-0.30469 0.30469-0.80859 0-1.1094l-4.5469-4.5469c-0.30469-0.30469-0.80859-0.30469-1.1094 0l-4.5469 4.5469c-0.30469 0.30469-0.30469 0.80859 0 1.1094 0.30859 0.30469 0.8125 0.30469 1.1172 0z"/>
 <path d="m12.727 40.203c-0.30469-0.30469-0.80859-0.30469-1.1094 0l-4.5469 4.5469c-0.30469 0.30469-0.30469 0.80859 0 1.1094 0.30469 0.30469 0.80859 0.30469 1.1094 0l3.2305-3.2305v9.293c0 0.40234 0.30469 0.80859 0.80859 0.80859s0.80859-0.30469 0.80859-0.80859v-9.293l3.2305 3.2305c0.10156 0.10156 0.30469 0.20312 0.50391 0.20312 0.20312 0 0.40234-0.10156 0.50391-0.20312 0.30469-0.30469 0.30469-0.80859 0-1.1094z"/>
<text x="0.0" y="117.5" font-size="5.0" font-weight="bold" font-family="Arbeit Regular, Helvetica, Arial-Unicode, Arial, Sans-serif" fill="#000000">Created by Marcus DeClarke</text><text x="0.0" y="122.5" font-size="5.0" font-weight="bold" font-family="Arbeit Regular, Helvetica, Arial-Unicode, Arial, Sans-serif" fill="#000000">from Noun Project</text></svg>